<svg version="1" xmlns="http://www.w3.org/2000/svg" width="800" height="800" viewBox="0 0 600.000000 600.000000"><path d="M278.9.4c-.2.2-4.6.6-9.8 1-5.2.4-9.7.8-10 1-.3.2-2.8.7-5.6 1-15.8 2.1-49.4 11-62 16.5-1.1.5-6 2.6-11 4.7-4.9 2.1-9.3 4.3-9.7 4.9-.4.5-.8.7-.8.3 0-.9-12.8 5.8-24 12.6-4.7 2.9-9.6 5.8-11 6.6-1.3.8-2.9 2-3.5 2.5-.7.6-3.8 2.8-7.1 5-3.2 2.2-6.3 4.5-6.9 5.1-.5.5-4.4 3.7-8.5 7-11.4 9-37.5 35.4-43 43.5-.8 1.2-2 2.7-2.5 3.3-.6.6-2.4 2.9-4 5.1-1.7 2.2-3.8 4.9-4.8 5.9-.9 1.1-1.7 2.6-1.7 3.3 0 .7-.4 1.3-.8 1.3-.5 0-1.7 1.7-2.8 3.7-1 2.1-2.3 4.1-2.7 4.4-.9.7-7.2 11.5-10.2 17.4-1.1 2.2-2.3 4.2-2.6 4.5-.9.6-7 14-11.9 25.7-10.1 24.1-18.2 56.6-20.7 82.8-1 10.2-1 48.3-.1 59.5 2.5 28.5 10.7 60.7 22.6 88.5 11.7 27.4 25.3 49.8 45.1 74 6.7 8.3 31.2 33.1 36.9 37.5 1.8 1.4 4.5 3.5 6 4.8 1.5 1.3 4.4 3.5 6.5 4.9 2 1.4 3.7 3 3.7 3.4 0 .5.5.9 1.1.9.6 0 2.8 1.3 4.9 3 2.1 1.6 4.2 3 4.8 3 .6 0 1.2.3 1.4.7.3.9 6.4 5.3 7.2 5.3.3 0 3 1.6 6 3.5s6 3.5 6.6 3.5c.5 0 1 .4 1 1 0 .5.3.9.8.8.7-.2 3.7 1.3 10.9 5.3 1.9 1.1 3.9 1.9 4.6 1.9.7 0 1.8.5 2.4 1.1 1 1 11 5.6 13.8 6.3.6.1 2.7 1 4.8 1.9 17.2 7.4 51.9 15.7 78.2 18.6 8.6 1 53.7.7 62-.3 25.2-3.1 65.2-12.6 67.7-16.1.4-.5.8-.7.8-.3 0 .7 6.6-1.5 13.5-4.6 1.7-.8 5.9-2.6 9.5-4.2 5.8-2.5 12.7-5.9 18.5-9.2 9.5-5.2 20.4-11.9 22.3-13.5 1.2-1.1 2.2-1.7 2.2-1.3 0 .4.6.1 1.3-.6.8-.7 4-3.1 7.2-5.3 3.3-2.2 6.6-4.7 7.5-5.5 3.1-2.8 7-6 7.4-6 2.5 0 33.4-31.4 43.4-44 4.6-5.8 9-11.3 9.8-12.3.8-.9 1.4-2.1 1.4-2.6s.3-1.1.8-1.3c.9-.3 8.2-11.3 8.2-12.3 0-.3.8-1.4 1.8-2.5.9-1 3.5-5.4 5.7-9.7 2.2-4.3 4.3-8 4.6-8.3.4-.3 2.3-4.1 4.4-8.5 15.7-34 23.9-62.7 28-98.5 1.3-11.5 1.4-56.9 0-65.5-2.9-19.2-4-25.6-6.5-36.1-7-29.5-22.5-66.9-36.1-87.2-1.6-2.4-2.9-4.5-2.9-4.8 0-.8-17.5-25.3-18.9-26.4-.4-.3-1.7-1.8-2.9-3.4-2.9-3.8-13.2-15.5-15.5-17.5-1-.9-5.3-5-9.6-9.1s-9.8-9.1-12.1-11c-6.1-5-10.3-8.3-11.8-9.5-.7-.5-2.1-1.7-3.1-2.5s-2.5-2-3.4-2.5c-.8-.6-4.8-3.2-8.9-6-4-2.7-8.2-5.5-9.3-6.1-1.1-.6-4.5-2.6-7.5-4.4-9.6-5.7-17.8-9.8-18.4-9.2-.3.3-.6 0-.6-.6 0-.7-.8-1.2-1.8-1.2s-2.4-.6-3-1.3c-.7-.6-1.6-1.2-2-1.3-.4 0-2.9-1-5.7-2.3-2.7-1.3-5.4-2.4-6-2.5-.5-.2-2.7-1-4.8-1.9C389.9 12 354 3.6 328.5 1.1c-8.8-.8-48.8-1.4-49.6-.7z"/></svg>